<svg xmlns="http://www.w3.org/2000/svg" viewBox="0 0 24 24" width="80" height="80">
	<style>
		tspan { white-space:pre }
		.shp0 { fill: #ffffff } 
	</style>
	<path id="Shape 1" class="shp0" d="M18.47 13.15L12 19.36L5.52 13.14C4.12 11.76 3.43 10.44 3.43 9.2C3.43 8.6 3.51 8.07 3.67 7.61C3.83 7.15 4.03 6.79 4.28 6.52C4.53 6.25 4.83 6.03 5.19 5.85C5.55 5.68 5.9 5.57 6.24 5.51C6.58 5.45 6.95 5.42 7.33 5.42C7.72 5.42 8.14 5.52 8.58 5.7C9.03 5.89 9.44 6.13 9.82 6.42C10.19 6.7 10.52 6.97 10.78 7.22C11.05 7.46 11.27 7.69 11.45 7.9C11.59 8.06 11.77 8.14 12 8.14C12.23 8.14 12.41 8.06 12.55 7.9C12.73 7.69 12.95 7.46 13.22 7.22C13.48 6.97 13.81 6.7 14.18 6.42C14.56 6.13 14.97 5.89 15.42 5.7C15.86 5.52 16.28 5.42 16.67 5.42C17.05 5.42 17.42 5.45 17.76 5.51C18.1 5.57 18.45 5.68 18.81 5.85C19.17 6.03 19.47 6.25 19.72 6.52C19.97 6.79 20.17 7.15 20.33 7.61C20.49 8.07 20.57 8.6 20.57 9.2C20.57 10.44 19.87 11.76 18.47 13.15L18.47 13.15ZM20.58 5.38C19.64 4.46 18.33 4 16.67 4C16.2 4 15.73 4.08 15.25 4.24C14.77 4.4 14.33 4.61 13.91 4.88C13.5 5.15 13.15 5.41 12.85 5.64C12.55 5.88 12.27 6.13 12 6.4C11.73 6.13 11.45 5.88 11.15 5.64C10.85 5.41 10.5 5.15 10.09 4.88C9.67 4.61 9.23 4.4 8.75 4.24C8.27 4.08 7.8 4 7.33 4C5.67 4 4.36 4.46 3.42 5.38C2.47 6.3 2 7.57 2 9.2C2 9.69 2.09 10.2 2.26 10.73C2.44 11.26 2.64 11.7 2.86 12.07C3.08 12.44 3.34 12.81 3.62 13.16C3.9 13.51 4.11 13.75 4.24 13.88C4.37 14.02 4.47 14.11 4.54 14.17L11.51 20.86C11.64 20.99 11.81 21.06 12 21.06C12.19 21.06 12.36 20.99 12.49 20.86L19.44 14.2C21.15 12.5 22 10.83 22 9.2C22 7.57 21.53 6.3 20.58 5.38Z" />
</svg>